{
  "accessors": [
    {
      "bufferView": 2,
      "componentType": 5126,
      "count": 15472,
      "max": [
        9.5916337966918945,
        19.783100128173828,
        49.287796020507812
      ],
      "min": [
        -9.623621940612793,
        -9.3492708206176758,
        -6.9938688278198242
      ],
      "type": "VEC3"
    },
    {
      "bufferView": 2,
      "byteOffset": 185664,
      "componentType": 5126,
      "count": 15472,
      "max": [
        0.99997562170028687,
        0.99999850988388062,
        0.99991238117218018
      ],
      "min": [
        -0.99996751546859741,
        -0.99988526105880737,
        -0.9997287392616272
      ],
      "type": "VEC3"
    },
    {
      "bufferView": 1,
      "componentType": 5126,
      "count": 15472,
      "max": [
        0.99991399049758911,
        0.99990898370742798
      ],
      "min": [
        2.8000000384054147e-05,
        0.00011000000085914508
      ],
      "type": "VEC2"
    },
    {
      "bufferView": 0,
      "componentType": 5125,
      "count": 77988,
      "max": [
        15471
      ],
      "min": [
        0
      ],
      "type": "SCALAR"
    },
    {
      "bufferView": 2,
      "byteOffset": 371328,
      "componentType": 5126,
      "count": 7469,
      "max": [
        7.878176212310791,
        5.7855420112609863,
        4.153134822845459
      ],
      "min": [
        -7.8864378929138184,
        -5.0247321128845215,
        -5.0435671806335449
      ],
      "type": "VEC3"
    },
    {
      "bufferView": 2,
      "byteOffset": 460956,
      "componentType": 5126,
      "count": 7469,
      "max": [
        0.99943935871124268,
        0.99964678287506104,
        0.99997150897979736
      ],
      "min": [
        -0.99853813648223877,
        -0.99939876794815063,
        -0.99924188852310181
      ],
      "type": "VEC3"
    },
    {
      "bufferView": 1,
      "byteOffset": 123776,
      "componentType": 5126,
      "count": 7469,
      "max": [
        0.99996501207351685,
        0.99994498491287231
      ],
      "min": [
        6.0000002122251317e-06,
        0.00011300000187475234
      ],
      "type": "VEC2"
    },
    {
      "bufferView": 0,
      "byteOffset": 311952,
      "componentType": 5125,
      "count": 36930,
      "max": [
        7468
      ],
      "min": [
        0
      ],
      "type": "SCALAR"
    },
    {
      "bufferView": 2,
      "byteOffset": 550584,
      "componentType": 5126,
      "count": 7541,
      "max": [
        7.1748929023742676,
        -5.894050121307373,
        21.305641174316406
      ],
      "min": [
        -7.1708359718322754,
        -26.538854598999023,
        0.67933601140975952
      ],
      "type": "VEC3"
    },
    {
      "bufferView": 2,
      "byteOffset": 641076,
      "componentType": 5126,
      "count": 7541,
      "max": [
        0.99985790252685547,
        0.99998587369918823,
        0.99953633546829224
      ],
      "min": [
        -0.99986588954925537,
        -0.99985826015472412,
        -0.99979835748672485
      ],
      "type": "VEC3"
    },
    {
      "bufferView": 1,
      "byteOffset": 183528,
      "componentType": 5126,
      "count": 7541,
      "max": [
        0.99880599975585938,
        0.83287101984024048
      ],
      "min": [
        7.3000002885237336e-05,
        7.9999999798019417e-06
      ],
      "type": "VEC2"
    },
    {
      "bufferView": 0,
      "byteOffset": 459672,
      "componentType": 5125,
      "count": 37728,
      "max": [
        7540
      ],
      "min": [
        0
      ],
      "type": "SCALAR"
    },
    {
      "bufferView": 2,
      "byteOffset": 731568,
      "componentType": 5126,
      "count": 59813,
      "max": [
        10.093963623046875,
        12.461282730102539,
        18.247732162475586
      ],
      "min": [
        -10.093331336975098,
        -9.739100456237793,
        3.819159984588623
      ],
      "type": "VEC3"
    },
    {
      "bufferView": 2,
      "byteOffset": 1449324,
      "componentType": 5126,
      "count": 59813,
      "max": [
        0.99975937604904175,
        0.99994653463363647,
        0.99997478723526001
      ],
      "min": [
        -0.99998873472213745,
        -0.99996978044509888,
        -0.99998825788497925
      ],
      "type": "VEC3"
    },
    {
      "bufferView": 1,
      "byteOffset": 243856,
      "componentType": 5126,
      "count": 59813,
      "max": [
        0.99998199939727783,
        0.99992197751998901
      ],
      "min": [
        2.4999999368446879e-05,
        7.0000000960135367e-06
      ],
      "type": "VEC2"
    },
    {
      "bufferView": 0,
      "byteOffset": 610584,
      "componentType": 5125,
      "count": 289788,
      "max": [
        59812
      ],
      "min": [
        0
      ],
      "type": "SCALAR"
    },
    {
      "bufferView": 2,
      "byteOffset": 2167080,
      "componentType": 5126,
      "count": 2366,
      "max": [
        9.6571464538574219,
        6.8781318664550781,
        9.2480506896972656
      ],
      "min": [
        -9.6561708450317383,
        2.7766039371490479,
        5.350182056427002
      ],
      "type": "VEC3"
    },
    {
      "bufferView": 2,
      "byteOffset": 2195472,
      "componentType": 5126,
      "count": 2366,
      "max": [
        0.99952161312103271,
        0.99954134225845337,
        0.99969667196273804
      ],
      "min": [
        -0.99962174892425537,
        -0.99993753433227539,
        -0.99985325336456299
      ],
      "type": "VEC3"
    },
    {
      "bufferView": 1,
      "byteOffset": 722360,
      "componentType": 5126,
      "count": 2366,
      "max": [
        0.99969100952148438,
        0.90281301736831665
      ],
      "min": [
        0.00014099999680183828,
        2.9999999242136255e-05
      ],
      "type": "VEC2"
    },
    {
      "bufferView": 0,
      "byteOffset": 1769736,
      "componentType": 5125,
      "count": 12324,
      "max": [
        2365
      ],
      "min": [
        0
      ],
      "type": "SCALAR"
    },
    {
      "bufferView": 2,
      "byteOffset": 2223864,
      "componentType": 5126,
      "count": 9670,
      "max": [
        27.204677581787109,
        17.451313018798828,
        75.076194763183594
      ],
      "min": [
        -27.315011978149414,
        -14.43790340423584,
        -29.44087028503418
      ],
      "type": "VEC3"
    },
    {
      "bufferView": 2,
      "byteOffset": 2339904,
      "componentType": 5126,
      "count": 9670,
      "max": [
        0.9998670220375061,
        0.99999725818634033,
        0.99807286262512207
      ],
      "min": [
        -0.99978762865066528,
        -0.99999445676803589,
        -0.99989473819732666
      ],
      "type": "VEC3"
    },
    {
      "bufferView": 1,
      "byteOffset": 741288,
      "componentType": 5126,
      "count": 9670,
      "max": [
        0.99992597103118896,
        0.96067297458648682
      ],
      "min": [
        3.3000000257743523e-05,
        0.00017499999376013875
      ],
      "type": "VEC2"
    },
    {
      "bufferView": 0,
      "byteOffset": 1819032,
      "componentType": 5125,
      "count": 48642,
      "max": [
        9669
      ],
      "min": [
        0
      ],
      "type": "SCALAR"
    }
  ],
  "asset": {
    "extras": {
      "author": "Gilloute (https://sketchfab.com/Gilloute)",
      "license": "CC-BY-4.0 (http://creativecommons.org/licenses/by/4.0/)",
      "source": "https://sketchfab.com/3d-models/shark-goldfish-ce9da5ca19494a4397ce138cd4373c07",
      "title": "Shark-goldfish"
    },
    "generator": "Sketchfab-8.46.0",
    "version": "2.0"
  },
  "bufferViews": [
    {
      "buffer": 0,
      "byteLength": 2013600,
      "byteOffset": 0,
      "name": "floatBufferViews",
      "target": 34963
    },
    {
      "buffer": 0,
      "byteLength": 818648,
      "byteOffset": 2013600,
      "byteStride": 8,
      "name": "floatBufferViews",
      "target": 34962
    },
    {
      "buffer": 0,
      "byteLength": 2455944,
      "byteOffset": 2832248,
      "byteStride": 12,
      "name": "floatBufferViews",
      "target": 34962
    }
  ],
  "buffers": [
    {
      "byteLength": 5288192,
      "uri": "scene.bin"
    }
  ],
  "images": [
    {
      "uri": "textures/Couche_1_mtl_baseColor.png"
    },
    {
      "uri": "textures/Couche_2_mtl_baseColor.png"
    },
    {
      "uri": "textures/Couche_3_mtl_baseColor.png"
    },
    {
      "uri": "textures/Couche_4_mtl_baseColor.png"
    },
    {
      "uri": "textures/Couche_5_mtl_baseColor.png"
    },
    {
      "uri": "textures/Couche_7_mtl_baseColor.png"
    }
  ],
  "materials": [
    {
      "doubleSided": true,
      "emissiveFactor": [
        0,
        0,
        0
      ],
      "name": "Couche_1_mtl",
      "pbrMetallicRoughness": {
        "baseColorFactor": [
          1,
          1,
          1,
          1
        ],
        "baseColorTexture": {
          "index": 0,
          "texCoord": 0
        },
        "metallicFactor": 0,
        "roughnessFactor": 0.17746657424803458
      }
    },
    {
      "doubleSided": true,
      "emissiveFactor": [
        0,
        0,
        0
      ],
      "name": "Couche_2_mtl",
      "pbrMetallicRoughness": {
        "baseColorFactor": [
          1,
          1,
          1,
          1
        ],
        "baseColorTexture": {
          "index": 1,
          "texCoord": 0
        },
        "metallicFactor": 0,
        "roughnessFactor": 0
      }
    },
    {
      "doubleSided": true,
      "emissiveFactor": [
        0,
        0,
        0
      ],
      "name": "Couche_3_mtl",
      "pbrMetallicRoughness": {
        "baseColorFactor": [
          1,
          1,
          1,
          1
        ],
        "baseColorTexture": {
          "index": 2,
          "texCoord": 0
        },
        "metallicFactor": 0.71309030881199498,
        "roughnessFactor": 0.60307869568125305
      }
    },
    {
      "doubleSided": true,
      "emissiveFactor": [
        0,
        0,
        0
      ],
      "name": "Couche_4_mtl",
      "pbrMetallicRoughness": {
        "baseColorFactor": [
          1,
          1,
          1,
          1
        ],
        "baseColorTexture": {
          "index": 3,
          "texCoord": 0
        },
        "metallicFactor": 0.634048057688683,
        "roughnessFactor": 0.28082951802467326
      }
    },
    {
      "doubleSided": true,
      "emissiveFactor": [
        0,
        0,
        0
      ],
      "name": "Couche_5_mtl",
      "pbrMetallicRoughness": {
        "baseColorFactor": [
          1,
          1,
          1,
          1
        ],
        "baseColorTexture": {
          "index": 4,
          "texCoord": 0
        },
        "metallicFactor": 0.62188771136201959,
        "roughnessFactor": 0.019382072001410511
      }
    },
    {
      "alphaMode": "BLEND",
      "doubleSided": true,
      "emissiveFactor": [
        0,
        0,
        0
      ],
      "name": "Couche_7_mtl",
      "pbrMetallicRoughness": {
        "baseColorFactor": [
          1,
          1,
          1,
          0.2631574947254498
        ],
        "baseColorTexture": {
          "index": 5,
          "texCoord": 0
        },
        "metallicFactor": 1,
        "roughnessFactor": 1
      }
    }
  ],
  "meshes": [
    {
      "primitives": [
        {
          "attributes": {
            "NORMAL": 1,
            "POSITION": 0,
            "TEXCOORD_0": 2
          },
          "indices": 3,
          "material": 0,
          "mode": 4
        }
      ]
    },
    {
      "primitives": [
        {
          "attributes": {
            "NORMAL": 5,
            "POSITION": 4,
            "TEXCOORD_0": 6
          },
          "indices": 7,
          "material": 1,
          "mode": 4
        }
      ]
    },
    {
      "primitives": [
        {
          "attributes": {
            "NORMAL": 9,
            "POSITION": 8,
            "TEXCOORD_0": 10
          },
          "indices": 11,
          "material": 2,
          "mode": 4
        }
      ]
    },
    {
      "primitives": [
        {
          "attributes": {
            "NORMAL": 13,
            "POSITION": 12,
            "TEXCOORD_0": 14
          },
          "indices": 15,
          "material": 3,
          "mode": 4
        }
      ]
    },
    {
      "primitives": [
        {
          "attributes": {
            "NORMAL": 17,
            "POSITION": 16,
            "TEXCOORD_0": 18
          },
          "indices": 19,
          "material": 4,
          "mode": 4
        }
      ]
    },
    {
      "primitives": [
        {
          "attributes": {
            "NORMAL": 21,
            "POSITION": 20,
            "TEXCOORD_0": 22
          },
          "indices": 23,
          "material": 5,
          "mode": 4
        }
      ]
    }
  ],
  "nodes": [
    {
      "children": [
        1
      ],
      "name": "RootNode (gltf orientation matrix)",
      "rotation": [
        -0.70710678118654746,
        -0,
        -0,
        0.70710678118654757
      ]
    },
    {
      "children": [
        2
      ],
      "matrix": [
        -2.2204460492503131e-16,
        -1,
        1.1102230246251565e-16,
        0,
        1.1102230246251565e-16,
        -2.2204460492503131e-16,
        -1,
        0,
        1,
        -1.1102230246251565e-16,
        0,
        0,
        -22.872861862182617,
        -3.4330425262451172,
        19.4398193359375,
        1
      ],
      "name": "RootNode (model correction matrix)"
    },
    {
      "children": [
        3,
        4,
        5,
        6,
        7,
        8
      ],
      "name": "poisson-requin.obj.cleaner.materialmerger.gles"
    },
    {
      "mesh": 0,
      "name": ""
    },
    {
      "mesh": 1,
      "name": ""
    },
    {
      "mesh": 2,
      "name": ""
    },
    {
      "mesh": 3,
      "name": ""
    },
    {
      "mesh": 4,
      "name": ""
    },
    {
      "mesh": 5,
      "name": ""
    }
  ],
  "samplers": [
    {
      "magFilter": 9729,
      "minFilter": 9987,
      "wrapS": 10497,
      "wrapT": 10497
    }
  ],
  "scene": 0,
  "scenes": [
    {
      "name": "OSG_Scene",
      "nodes": [
        0
      ]
    }
  ],
  "textures": [
    {
      "sampler": 0,
      "source": 0
    },
    {
      "sampler": 0,
      "source": 1
    },
    {
      "sampler": 0,
      "source": 2
    },
    {
      "sampler": 0,
      "source": 3
    },
    {
      "sampler": 0,
      "source": 4
    },
    {
      "sampler": 0,
      "source": 5
    }
  ]
}

